<?xml version="1.0" encoding="utf-8"?>
<!-- Generator: Adobe Illustrator 24.3.0, SVG Export Plug-In . SVG Version: 6.00 Build 0)  -->
<svg version="1.1" id="Calque_1" xmlns="http://www.w3.org/2000/svg" xmlns:xlink="http://www.w3.org/1999/xlink" x="0px" y="0px"
	 viewBox="0 0 72 72" style="enable-background:new 0 0 72 72;" xml:space="preserve">
<path d="M36,12.1c-13.5,0-24.4,10.9-24.4,24.4S22.5,60.9,36,60.9S60.4,50,60.4,36.5S49.5,12.1,36,12.1z M31.9,39.5h-2.7v4.4h-1.4
	v-4.4h-7.3v-1L27,26.3h1.6l-6.4,11.9h5.6V33h1.4v0.1v5.2h2.7V39.5z M47,43.1c-0.2,0.1-0.4,0.2-0.7,0.3c-0.3,0.1-0.7,0.3-1.1,0.4
	c-0.4,0.1-1,0.2-1.5,0.3c-0.6,0.1-1.2,0.1-1.9,0.1c-2.6,0-4.5-0.8-5.8-2.3s-1.9-3.8-1.9-6.8c0-1.3,0.2-2.6,0.5-3.7
	c0.3-1.1,0.8-2.1,1.4-2.9c0.6-0.8,1.4-1.5,2.3-1.9c0.9-0.5,2-0.7,3.3-0.7c1.1,0,2.1,0.1,3,0.4c0.9,0.3,1.6,0.7,2.3,1.3L46,28.9
	c-0.2-0.1-0.4-0.3-0.7-0.5c-0.3-0.2-0.6-0.3-0.9-0.5c-0.4-0.2-0.8-0.3-1.2-0.4s-1-0.1-1.6-0.1c-0.9,0-1.7,0.2-2.4,0.5
	c-0.7,0.3-1.3,0.8-1.8,1.5c-0.5,0.7-0.9,1.5-1.2,2.4c-0.3,1-0.4,2.1-0.4,3.4c0,2.7,0.5,4.6,1.6,5.8c1,1.2,2.6,1.8,4.6,1.8
	c0.8,0,1.5-0.1,2.1-0.2c0.6-0.1,1.1-0.3,1.5-0.4v-5.9h-3.7V35H47V43.1z"/>
</svg>
