<?xml version="1.0" encoding="utf-8"?>
<!-- Generator: Adobe Illustrator 24.3.0, SVG Export Plug-In . SVG Version: 6.00 Build 0)  -->
<svg version="1.1" id="Calque_1" xmlns="http://www.w3.org/2000/svg" xmlns:xlink="http://www.w3.org/1999/xlink" x="0px" y="0px"
	 viewBox="0 0 72 72" style="enable-background:new 0 0 72 72;" xml:space="preserve">
<path d="M30.7,10.9h10.4c0.9,0,1.6,0.7,1.6,1.6v3.6H29.1v-3.6C29.1,11.6,29.8,10.9,30.7,10.9z M25.1,17.1h3.5h0.1h14.6h0.1h3.5
	c0.9,0,1.7,0.8,1.7,1.7v6.3H23.4v-6.4C23.4,17.8,24.1,17.1,25.1,17.1z M46.9,62.1H25.1c-0.9,0-1.6-0.7-1.6-1.6V26.1h25.1v34.3
	C48.6,61.4,47.9,62.1,46.9,62.1z"/>
</svg>
