<?xml version="1.0" encoding="utf-8"?>
<!-- Generator: Adobe Illustrator 24.3.0, SVG Export Plug-In . SVG Version: 6.00 Build 0)  -->
<svg version="1.1" id="Calque_1" xmlns="http://www.w3.org/2000/svg" xmlns:xlink="http://www.w3.org/1999/xlink" x="0px" y="0px"
	 viewBox="0 0 72 72" style="enable-background:new 0 0 72 72;" xml:space="preserve">
<g>
	<path d="M54.8,27.7c-0.5,0-0.9,0.4-0.9,0.9s0.4,0.9,0.9,0.9s0.9-0.4,0.9-0.9C55.7,28.1,55.2,27.7,54.8,27.7z"/>
	<path d="M61.5,28c0.1-1.3-0.4-2.5-1.3-3.4c-0.9-0.9-2.2-1.5-3.5-1.5H49l-2.2-4.2c-1-1.6-2.6-2.5-4.3-2.5H29.7
		c-1.8,0-3.4,0.9-4.3,2.6l-2.2,4.1h-7.7c-2.8,0-5,2.2-5,5v23.5c0,2.8,2.2,5,5,5h41c2.8,0,5-2.2,5-5L61.5,28z M36.1,50.1
		c-6.5,0-11.7-5.2-11.7-11.7c0-6.5,5.2-11.7,11.7-11.7c6.5,0,11.7,5.2,11.7,11.7C47.8,44.9,42.5,50.1,36.1,50.1z M54.8,30.5
		c-1.1,0-1.9-0.8-1.9-1.9c0-1.1,0.8-1.9,1.9-1.9c1,0,1.9,0.9,1.9,1.9C56.7,29.7,55.9,30.5,54.8,30.5z"/>
	<path d="M36.1,27.7c-5.9,0-10.7,4.8-10.7,10.7s4.8,10.7,10.7,10.7s10.7-4.8,10.7-10.7S42,27.7,36.1,27.7z"/>
</g>
</svg>
