<?xml version="1.0" encoding="utf-8"?>
<!-- Generator: Adobe Illustrator 24.3.0, SVG Export Plug-In . SVG Version: 6.00 Build 0)  -->
<svg version="1.1" id="Calque_1" xmlns="http://www.w3.org/2000/svg" xmlns:xlink="http://www.w3.org/1999/xlink" x="0px" y="0px"
	 viewBox="0 0 72 72" style="enable-background:new 0 0 72 72;" xml:space="preserve">
<style type="text/css">
	.st0{fill:#FFFFFF;}
</style>
<g>
	<path d="M24,14.3c-6.7,0-12.3,5.6-12.3,12.3l0,0.1l-2.2,24c0,3.7,2.6,6.9,6.3,7.7l0.2,0c0.5,0.1,0.9,0.2,1.4,0.2
		c3.7,0,6.9-2.7,7.6-6.4c0.3-1.7,0.8-3.3,1.2-4.7l1-3.1c0.5-1.4,1.8-2.3,3.3-2.3h11.1c1.5,0,2.8,0.9,3.3,2.3l1,3.1
		c0.5,1.4,0.9,3,1.2,4.7c0.7,3.6,4,6.3,7.7,6.3c4.3,0,7.8-3.5,7.8-7.8l-2.2-24.1c0-3.5-1.6-7-4.3-9.3c-2.2-1.9-5.1-3-8-3
		c-3.7,0-7.1,1.6-9.4,4.3L38.3,19c-0.7,0.6-1.5,0.8-2.3,0.8c-1.1,0-2-0.4-2.7-1.2C30.9,15.9,27.5,14.3,24,14.3z"/>
</g>
<g>
	<path class="st0" d="M24,35.7c-4,0-7.3-3.3-7.3-7.3c0-4,3.3-7.3,7.3-7.3s7.3,3.3,7.3,7.3C31.3,32.4,28,35.7,24,35.7z M24,22.1
		c-3.5,0-6.3,2.8-6.3,6.3c0,3.5,2.8,6.3,6.3,6.3s6.3-2.8,6.3-6.3C30.3,24.9,27.4,22.1,24,22.1z"/>
</g>
<g>
	<path class="st0" d="M48.1,27.9c-2.3,0-4.2-1.9-4.2-4.2s1.9-4.2,4.2-4.2s4.2,1.9,4.2,4.2S50.4,27.9,48.1,27.9z M48.1,20.6
		c-1.8,0-3.2,1.4-3.2,3.2c0,1.8,1.4,3.2,3.2,3.2s3.2-1.4,3.2-3.2C51.3,22,49.8,20.6,48.1,20.6z"/>
</g>
<g>
	<path class="st0" d="M53.4,36.9c-2.3,0-4.2-1.9-4.2-4.2s1.9-4.2,4.2-4.2c2.3,0,4.2,1.9,4.2,4.2S55.7,36.9,53.4,36.9z M53.4,29.6
		c-1.8,0-3.2,1.4-3.2,3.2c0,1.8,1.4,3.2,3.2,3.2c1.8,0,3.2-1.4,3.2-3.2C56.6,31,55.1,29.6,53.4,29.6z"/>
</g>
<g>
	<path class="st0" d="M42.9,36.9c-2.3,0-4.2-1.9-4.2-4.2s1.9-4.2,4.2-4.2c2.3,0,4.2,1.9,4.2,4.2S45.2,36.9,42.9,36.9z M42.9,29.6
		c-1.8,0-3.2,1.4-3.2,3.2c0,1.8,1.4,3.2,3.2,3.2c1.8,0,3.2-1.4,3.2-3.2C46.1,31,44.6,29.6,42.9,29.6z"/>
</g>
</svg>
