<?xml version="1.0" encoding="utf-8"?>
<!-- Generator: Adobe Illustrator 24.3.0, SVG Export Plug-In . SVG Version: 6.00 Build 0)  -->
<svg version="1.1" id="Calque_1" xmlns="http://www.w3.org/2000/svg" xmlns:xlink="http://www.w3.org/1999/xlink" x="0px" y="0px"
	 viewBox="0 0 72 72" style="enable-background:new 0 0 72 72;" xml:space="preserve">
<g>
	<path d="M22,58.4c-4,0-7.3-3.3-7.3-7.3c0-4,3.3-7.3,7.3-7.3s7.3,3.3,7.3,7.3C29.3,55.1,26.1,58.4,22,58.4z"/>
</g>
<g>
	<path d="M49.8,54.7c-4,0-7.3-3.3-7.3-7.3s3.3-7.3,7.3-7.3s7.3,3.3,7.3,7.3S53.9,54.7,49.8,54.7z"/>
</g>
<path d="M57,17.8c-0.1-1-0.5-1.9-1.3-2.5c-0.7-0.5-1.6-0.7-2.5-0.5l-22.5,5.3c-1.4,0.4-2.4,1.6-2.4,3v28c0,0.3,0.2,0.5,0.5,0.5
	s0.5-0.2,0.5-0.5V31.2l26.7-6.3l0.2,22.4c0,0.3,0.2,0.5,0.5,0.5c0,0,0,0,0,0c0.3,0,0.5-0.2,0.5-0.5L57,17.8z"/>
</svg>
