<?xml version="1.0" encoding="utf-8"?>
<!-- Generator: Adobe Illustrator 24.3.0, SVG Export Plug-In . SVG Version: 6.00 Build 0)  -->
<svg version="1.1" id="Calque_1" xmlns="http://www.w3.org/2000/svg" xmlns:xlink="http://www.w3.org/1999/xlink" x="0px" y="0px"
	 viewBox="0 0 72 72" style="enable-background:new 0 0 72 72;" xml:space="preserve">
<style type="text/css">
	.st0{fill:none;stroke:#000000;stroke-linecap:round;stroke-miterlimit:10;}
	.st1{enable-background:new    ;}
</style>
<path class="st0" d="M35,9.6C21.5,9.6,10.6,20.5,10.6,34S21.5,58.4,35,58.4S59.4,47.5,59.4,34S48.5,9.6,35,9.6z"/>
<g class="st1">
	<path d="M22.8,24.9c-0.9,0-1.6,0.1-2.2,0.4C20,25.6,19.5,26,19,26.5s-0.7,1-0.9,1.7c-0.2,0.6-0.4,1.2-0.4,1.9h7.2l-0.4,1.3h-6.9
		c0,0.1,0,0.3,0,0.6c0,0.3,0,0.6,0,0.8c0,0.2,0,0.5,0,0.8c0,0.3,0,0.5,0,0.6h6.4l-0.4,1.3h-5.9c0.1,0.7,0.2,1.3,0.4,1.9
		c0.2,0.6,0.5,1.1,0.9,1.6s0.9,0.8,1.5,1.1c0.6,0.3,1.3,0.4,2.2,0.4c0.6,0,1.1,0,1.6-0.2c0.5-0.1,0.8-0.2,1.2-0.4
		c0.3-0.1,0.6-0.3,0.8-0.5s0.4-0.3,0.6-0.5l0.8,1.1c-0.5,0.4-1.1,0.8-1.9,1.2c-0.8,0.4-1.8,0.5-3.1,0.5c-1,0-1.9-0.1-2.7-0.5
		c-0.8-0.3-1.4-0.7-1.9-1.3c-0.5-0.5-0.9-1.2-1.3-2c-0.3-0.8-0.5-1.7-0.6-2.7h-1.8v-1.3h1.7c0-0.4-0.1-0.7-0.1-0.9s0-0.3,0-0.5
		c0-0.1,0-0.2,0-0.2c0-0.1,0-0.2,0-0.2c0-0.1,0-0.2,0-0.3c0-0.1,0-0.3,0-0.5h-1.7v-1.3h1.9c0.1-0.9,0.4-1.7,0.7-2.5
		c0.3-0.8,0.7-1.5,1.3-2.1s1.2-1.1,2-1.4c0.8-0.4,1.7-0.5,2.7-0.5c1.2,0,2.2,0.2,2.9,0.5c0.8,0.4,1.4,0.7,1.9,1.2l-0.8,1.1
		c-0.1-0.1-0.3-0.3-0.6-0.4s-0.5-0.3-0.9-0.5c-0.3-0.2-0.7-0.3-1.1-0.4C23.8,25,23.3,24.9,22.8,24.9z"/>
	<path d="M36.7,24.9c-0.9,0-1.6,0.1-2.2,0.4c-0.6,0.3-1.1,0.7-1.5,1.2s-0.7,1-0.9,1.7c-0.2,0.6-0.4,1.2-0.4,1.9h7.2l-0.4,1.3h-6.9
		c0,0.1,0,0.3,0,0.6c0,0.3,0,0.6,0,0.8c0,0.2,0,0.5,0,0.8c0,0.3,0,0.5,0,0.6h6.4l-0.4,1.3h-5.9c0.1,0.7,0.2,1.3,0.4,1.9
		c0.2,0.6,0.5,1.1,0.9,1.6s0.9,0.8,1.5,1.1c0.6,0.3,1.3,0.4,2.2,0.4c0.6,0,1.1,0,1.6-0.2c0.5-0.1,0.8-0.2,1.2-0.4
		c0.3-0.1,0.6-0.3,0.8-0.5s0.4-0.3,0.6-0.5l0.8,1.1c-0.5,0.4-1.1,0.8-1.9,1.2c-0.8,0.4-1.8,0.5-3.1,0.5c-1,0-1.9-0.1-2.7-0.5
		C33,41,32.4,40.6,31.8,40c-0.5-0.5-0.9-1.2-1.3-2c-0.3-0.8-0.5-1.7-0.6-2.7h-1.8v-1.3h1.7c0-0.4-0.1-0.7-0.1-0.9s0-0.3,0-0.5
		c0-0.1,0-0.2,0-0.2c0-0.1,0-0.2,0-0.2c0-0.1,0-0.2,0-0.3c0-0.1,0-0.3,0-0.5h-1.7v-1.3H30c0.1-0.9,0.4-1.7,0.7-2.5
		c0.3-0.8,0.7-1.5,1.3-2.1s1.2-1.1,2-1.4c0.8-0.4,1.7-0.5,2.7-0.5c1.2,0,2.2,0.2,2.9,0.5c0.8,0.4,1.4,0.7,1.9,1.2l-0.8,1.1
		c-0.1-0.1-0.3-0.3-0.6-0.4s-0.5-0.3-0.8-0.5c-0.3-0.2-0.7-0.3-1.1-0.4S37.2,24.9,36.7,24.9z"/>
	<path d="M50.6,24.9c-0.9,0-1.6,0.1-2.2,0.4s-1.1,0.7-1.5,1.2s-0.7,1-0.9,1.7c-0.2,0.6-0.4,1.2-0.4,1.9h7.2l-0.4,1.3h-7
		c0,0.1,0,0.3,0,0.6c0,0.3,0,0.6,0,0.8c0,0.2,0,0.5,0,0.8c0,0.3,0,0.5,0,0.6h6.4l-0.4,1.3h-5.9c0.1,0.7,0.2,1.3,0.4,1.9
		c0.2,0.6,0.5,1.1,0.9,1.6c0.4,0.5,0.9,0.8,1.5,1.1c0.6,0.3,1.3,0.4,2.2,0.4c0.6,0,1.1,0,1.6-0.2c0.5-0.1,0.8-0.2,1.2-0.4
		c0.3-0.1,0.6-0.3,0.8-0.5s0.4-0.3,0.6-0.5l0.8,1.1c-0.5,0.4-1.1,0.8-1.9,1.2c-0.8,0.4-1.8,0.5-3.1,0.5c-1,0-1.9-0.1-2.7-0.5
		c-0.8-0.3-1.4-0.7-1.9-1.3s-0.9-1.2-1.3-2s-0.5-1.7-0.6-2.7H42v-1.3h1.7c0-0.4-0.1-0.7-0.1-0.9s0-0.3,0-0.5c0-0.1,0-0.2,0-0.2
		c0-0.1,0-0.2,0-0.2c0-0.1,0-0.2,0-0.3c0-0.1,0-0.3,0-0.5H42v-1.3h1.9c0.1-0.9,0.4-1.7,0.7-2.5s0.7-1.5,1.3-2.1
		c0.5-0.6,1.2-1.1,2-1.4c0.8-0.4,1.7-0.5,2.7-0.5c1.2,0,2.2,0.2,2.9,0.5c0.8,0.4,1.4,0.7,1.9,1.2l-0.8,1.1c-0.2-0.1-0.3-0.3-0.6-0.4
		s-0.5-0.3-0.9-0.5c-0.3-0.2-0.7-0.3-1.1-0.4C51.6,25,51.1,24.9,50.6,24.9z"/>
</g>
</svg>
