<?xml version="1.0" encoding="utf-8"?>
<!-- Generator: Adobe Illustrator 24.3.0, SVG Export Plug-In . SVG Version: 6.00 Build 0)  -->
<svg version="1.1" id="Calque_1" xmlns="http://www.w3.org/2000/svg" xmlns:xlink="http://www.w3.org/1999/xlink" x="0px" y="0px"
	 viewBox="0 0 72 72" style="enable-background:new 0 0 72 72;" xml:space="preserve">
<path d="M36,12.1c-13.5,0-24.4,10.9-24.4,24.4S22.5,60.9,36,60.9S60.4,50,60.4,36.5S49.5,12.1,36,12.1z M25.9,32.6l-0.4,1.3h-6.9
	c0,0.1,0,0.3,0,0.6c0,0.3,0,0.6,0,0.8s0,0.5,0,0.8s0,0.5,0,0.6H25L24.6,38h-5.9c0.1,0.7,0.2,1.3,0.4,1.9c0.2,0.6,0.5,1.1,0.9,1.6
	c0.4,0.5,0.9,0.8,1.5,1.1c0.6,0.3,1.3,0.4,2.2,0.4c0.6,0,1.1,0,1.6-0.2c0.5-0.1,0.8-0.2,1.2-0.4c0.3-0.1,0.6-0.3,0.8-0.5
	s0.4-0.3,0.6-0.5l0.8,1.1c-0.5,0.4-1.1,0.8-1.9,1.2c-0.8,0.4-1.8,0.5-3.1,0.5c-1,0-1.9-0.1-2.7-0.5c-0.8-0.3-1.4-0.7-1.9-1.3
	c-0.5-0.5-0.9-1.2-1.3-2c-0.3-0.8-0.5-1.7-0.6-2.7h-1.8v-1.3h1.7c0-0.4-0.1-0.7-0.1-0.9c0-0.2,0-0.3,0-0.5c0-0.1,0-0.2,0-0.2
	c0-0.1,0-0.2,0-0.2c0-0.1,0-0.2,0-0.3c0-0.1,0-0.3,0-0.5h-1.7v-1.3h1.9c0.1-0.9,0.4-1.7,0.7-2.5c0.3-0.8,0.7-1.5,1.3-2.1
	c0.6-0.6,1.2-1.1,2-1.4c0.8-0.4,1.7-0.5,2.7-0.5c1.2,0,2.2,0.2,2.9,0.5c0.8,0.4,1.4,0.7,1.9,1.2l-0.8,1.1c-0.1-0.1-0.3-0.3-0.6-0.4
	c-0.3-0.1-0.5-0.3-0.9-0.5c-0.3-0.2-0.7-0.3-1.1-0.4c-0.5,0-1-0.1-1.5-0.1c-0.9,0-1.6,0.1-2.2,0.4S20.5,28.5,20,29s-0.7,1-0.9,1.7
	c-0.2,0.6-0.4,1.2-0.4,1.9H25.9z M40.8,43.7c-0.8,0.4-1.8,0.5-3.1,0.5c-1,0-1.9-0.1-2.7-0.5c-1-0.2-1.6-0.6-2.2-1.2
	c-0.5-0.5-0.9-1.2-1.3-2c-0.3-0.8-0.5-1.7-0.6-2.7h-1.8v-1.3h1.7c0-0.4-0.1-0.7-0.1-0.9s0-0.3,0-0.5c0-0.1,0-0.2,0-0.2
	c0-0.1,0-0.2,0-0.2c0-0.1,0-0.2,0-0.3c0-0.1,0-0.3,0-0.5H29v-1.3h2c0.1-0.9,0.4-1.7,0.7-2.5c0.3-0.8,0.7-1.5,1.3-2.1
	c0.6-0.6,1.2-1.1,2-1.4c0.8-0.4,1.7-0.5,2.7-0.5c1.2,0,2.2,0.2,2.9,0.5c0.8,0.4,1.4,0.7,1.9,1.2l-0.8,1.1c-0.1-0.1-0.3-0.3-0.6-0.4
	c-0.3-0.1-0.5-0.3-0.8-0.5s-0.7-0.3-1.1-0.4c-0.4-0.1-1-0.2-1.5-0.2c-0.9,0-1.6,0.1-2.2,0.4c-0.6,0.3-1.1,0.7-1.5,1.2
	c-0.4,0.5-0.7,1-0.9,1.7c-0.2,0.6-0.4,1.2-0.4,1.9h7.2l-0.4,1.3h-6.9c0,0.1,0,0.3,0,0.6c0,0.3,0,0.6,0,0.8s0,0.5,0,0.8s0,0.5,0,0.6
	H39L38.6,38h-5.9c0.1,0.7,0.2,1.3,0.4,1.9c0.2,0.6,0.5,1.1,0.9,1.6c0.4,0.5,0.9,0.8,1.5,1.1c0.6,0.3,1.3,0.4,2.2,0.4
	c0.6,0,1.1,0,1.6-0.2c0.5-0.1,0.8-0.2,1.2-0.4c0.3-0.1,0.6-0.3,0.8-0.5s0.4-0.3,0.6-0.5l0.8,1.1C42.2,42.9,41.6,43.3,40.8,43.7z
	 M51.5,44.2c-1,0-1.9-0.1-2.7-0.5c-0.8-0.3-1.4-0.7-1.9-1.3c-0.5-0.6-0.9-1.2-1.3-2c-0.4-0.8-0.5-1.7-0.6-2.7h-2v-1.3h1.7
	c0-0.4-0.1-0.7-0.1-0.9c0-0.2,0-0.3,0-0.5c0-0.1,0-0.2,0-0.2c0-0.1,0-0.2,0-0.2c0-0.1,0-0.2,0-0.3c0-0.1,0-0.3,0-0.5H43v-1.3h1.9
	c0.1-0.9,0.4-1.7,0.7-2.5c0.3-0.8,0.7-1.5,1.3-2.1c0.5-0.6,1.2-1.1,2-1.4c0.8-0.4,1.7-0.5,2.7-0.5c1.2,0,2.2,0.2,2.9,0.5
	c0.8,0.4,1.4,0.7,1.9,1.2l-0.8,1.1c-0.2-0.1-0.3-0.3-0.6-0.4c-0.3-0.1-0.5-0.3-0.9-0.5c-0.3-0.2-0.7-0.3-1.1-0.4
	c-0.4,0-0.9-0.1-1.4-0.1c-0.9,0-1.6,0.1-2.2,0.4c-0.6,0.3-1.1,0.7-1.5,1.2c-0.4,0.5-0.7,1-0.9,1.7c-0.2,0.6-0.4,1.2-0.4,1.9h7.2
	l-0.4,1.3h-7c0,0.1,0,0.3,0,0.6c0,0.3,0,0.6,0,0.8s0,0.5,0,0.8s0,0.5,0,0.6h6.4L52.4,38h-5.9c0.1,0.7,0.2,1.3,0.4,1.9
	c0.2,0.6,0.5,1.1,0.9,1.6c0.4,0.5,0.9,0.8,1.5,1.1c0.6,0.3,1.3,0.4,2.2,0.4c0.6,0,1.1,0,1.6-0.2c0.5-0.1,0.8-0.2,1.2-0.4
	c0.3-0.1,0.6-0.3,0.8-0.5s0.4-0.3,0.6-0.5l0.8,1.1c-0.5,0.4-1.1,0.8-1.9,1.2C53.8,44.1,52.8,44.2,51.5,44.2z"/>
</svg>
