<?xml version="1.0" encoding="utf-8"?>
<!-- Generator: Adobe Illustrator 24.3.0, SVG Export Plug-In . SVG Version: 6.00 Build 0)  -->
<svg version="1.1" id="Calque_1" xmlns="http://www.w3.org/2000/svg" xmlns:xlink="http://www.w3.org/1999/xlink" x="0px" y="0px"
	 viewBox="0 0 72 72" style="enable-background:new 0 0 72 72;" xml:space="preserve">
<style type="text/css">
	.st0{fill:none;stroke:#000000;stroke-linecap:round;stroke-miterlimit:10;}
	.st1{enable-background:new    ;}
</style>
<path class="st0" d="M36,11.6c-13.5,0-24.4,10.9-24.4,24.4S22.5,60.4,36,60.4S60.4,49.5,60.4,36S49.5,11.6,36,11.6z"/>
<g class="st1">
	<path d="M31.2,32.6v5.2h2.7V39h-2.7v4.4h-1.4V39h-7.3v-1L29,25.8h1.6l-6.4,11.9h5.6v-5.2H31.2z"/>
	<path d="M43.6,26.9c-0.9,0-1.7,0.2-2.4,0.5c-0.7,0.3-1.3,0.8-1.8,1.5c-0.5,0.7-0.9,1.5-1.2,2.4c-0.3,1-0.4,2.1-0.4,3.4
		c0,2.7,0.5,4.6,1.6,5.8c1,1.2,2.6,1.8,4.6,1.8c0.8,0,1.5-0.1,2.1-0.2c0.6-0.1,1.1-0.3,1.5-0.4v-5.9h-3.7v-1.3H49v8.1
		c-0.2,0.1-0.4,0.2-0.7,0.3c-0.3,0.1-0.7,0.3-1.1,0.4s-1,0.2-1.5,0.3c-0.6,0.1-1.2,0.1-1.9,0.1c-2.6,0-4.5-0.8-5.8-2.3
		c-1.3-1.5-1.9-3.8-1.9-6.8c0-1.3,0.2-2.6,0.5-3.7c0.3-1.1,0.8-2.1,1.4-2.9c0.6-0.8,1.4-1.5,2.3-1.9c0.9-0.5,2-0.7,3.3-0.7
		c1.1,0,2.1,0.1,3,0.4c0.9,0.3,1.6,0.7,2.3,1.3L48,28.4c-0.2-0.1-0.4-0.3-0.7-0.5s-0.6-0.3-0.9-0.5c-0.4-0.2-0.8-0.3-1.2-0.4
		S44.2,26.9,43.6,26.9z"/>
</g>
</svg>
