<?xml version="1.0" encoding="utf-8"?>
<!-- Generator: Adobe Illustrator 24.3.0, SVG Export Plug-In . SVG Version: 6.00 Build 0)  -->
<svg version="1.1" id="Calque_1" xmlns="http://www.w3.org/2000/svg" xmlns:xlink="http://www.w3.org/1999/xlink" x="0px" y="0px"
	 viewBox="0 0 72 72" style="enable-background:new 0 0 72 72;" xml:space="preserve">
<style type="text/css">
	.st0{fill:none;stroke:#000000;stroke-linecap:round;stroke-miterlimit:10;}
</style>
<path class="st0" d="M55.6,23.5h-8l-2.3-4.4h0c-0.8-1.3-2.2-2.3-3.9-2.3h-6.4h-6.4c-1.7,0-3.1,0.9-3.9,2.3h0l-2.3,4.4h-8
	c-2.5,0-4.5,2-4.5,4.5v23.5c0,2.5,2,4.5,4.5,4.5h20.5h20.5c2.5,0,4.5-2,4.5-4.5V27.9C60,25.5,58,23.5,55.6,23.5z"/>
<path class="st0" d="M55.1,28.5c0,0.8-0.6,1.4-1.4,1.4c-0.8,0-1.4-0.6-1.4-1.4c0-0.8,0.6-1.4,1.4-1.4C54.4,27.1,55.1,27.7,55.1,28.5
	z"/>
<path class="st0" d="M46.2,38.3c0,6.2-5,11.2-11.2,11.2c-6.2,0-11.2-5-11.2-11.2c0-6.2,5-11.2,11.2-11.2
	C41.2,27.1,46.2,32.1,46.2,38.3z"/>
</svg>
