<?xml version="1.0" encoding="utf-8"?>
<!-- Generator: Adobe Illustrator 24.3.0, SVG Export Plug-In . SVG Version: 6.00 Build 0)  -->
<svg version="1.1" id="Calque_1" xmlns="http://www.w3.org/2000/svg" xmlns:xlink="http://www.w3.org/1999/xlink" x="0px" y="0px"
	 viewBox="0 0 72 72" style="enable-background:new 0 0 72 72;" xml:space="preserve">
<style type="text/css">
	.st0{fill:none;stroke:#000000;stroke-linecap:round;stroke-miterlimit:10;}
</style>
<path class="st0" d="M22.5,23.8c-2.9,0-5.2-2.4-5.2-5.2s2.4-5.2,5.2-5.2s5.2,2.4,5.2,5.2C27.7,21.4,25.4,23.8,22.5,23.8z M36,23.8
	c-2.9,0-5.2-2.4-5.2-5.2s2.4-5.2,5.2-5.2c2.9,0,5.2,2.4,5.2,5.2C41.2,21.4,38.9,23.8,36,23.8z M49.5,23.8c-2.9,0-5.2-2.4-5.2-5.2
	s2.4-5.2,5.2-5.2s5.2,2.4,5.2,5.2C54.7,21.4,52.4,23.8,49.5,23.8z M22.5,35.8c-2.9,0-5.2-2.4-5.2-5.2s2.4-5.2,5.2-5.2
	s5.2,2.4,5.2,5.2C27.7,33.4,25.4,35.8,22.5,35.8z M36,35.8c-2.9,0-5.2-2.4-5.2-5.2s2.4-5.2,5.2-5.2c2.9,0,5.2,2.4,5.2,5.2
	C41.2,33.4,38.9,35.8,36,35.8z M49.5,35.8c-2.9,0-5.2-2.4-5.2-5.2s2.4-5.2,5.2-5.2s5.2,2.4,5.2,5.2C54.7,33.4,52.4,35.8,49.5,35.8z
	 M22.5,47.8c-2.9,0-5.2-2.4-5.2-5.2s2.4-5.2,5.2-5.2s5.2,2.4,5.2,5.2l0,0C27.7,45.4,25.4,47.8,22.5,47.8z M36,47.8
	c-2.9,0-5.2-2.4-5.2-5.2s2.4-5.2,5.2-5.2c2.9,0,5.2,2.4,5.2,5.2l0,0C41.2,45.4,38.9,47.8,36,47.8z M36,59.8c-2.9,0-5.2-2.4-5.2-5.2
	c0-2.9,2.4-5.2,5.2-5.2c2.9,0,5.2,2.4,5.2,5.2C41.2,57.4,38.9,59.8,36,59.8z M49.5,47.8c-2.9,0-5.2-2.4-5.2-5.2s2.4-5.2,5.2-5.2
	s5.2,2.4,5.2,5.2l0,0C54.7,45.4,52.4,47.8,49.5,47.8z"/>
</svg>
