<?xml version="1.0" encoding="utf-8"?>
<!-- Generator: Adobe Illustrator 24.3.0, SVG Export Plug-In . SVG Version: 6.00 Build 0)  -->
<svg version="1.1" id="Calque_1" xmlns="http://www.w3.org/2000/svg" xmlns:xlink="http://www.w3.org/1999/xlink" x="0px" y="0px"
	 viewBox="0 0 72 72" style="enable-background:new 0 0 72 72;" xml:space="preserve">
<style type="text/css">
	.st0{fill:none;stroke:#000000;stroke-linecap:round;stroke-miterlimit:10;}
</style>
<path class="st0" d="M17.3,58.6c-0.6,0-1.1-0.1-1.7-0.2c-3.9-0.8-6.7-4.2-6.7-8.2l2.2-24l0-0.1c0-7,5.8-12.8,12.8-12.8
	c3.8,0,7.3,1.7,9.8,4.5c0.6,0.7,1.4,1,2.3,1c0.7,0,1.4-0.3,1.9-0.7c0.1-0.1,0.2-0.2,0.3-0.3c2.4-2.9,6-4.5,9.8-4.5
	c3,0,6,1.1,8.3,3.1c2.8,2.4,4.5,6,4.5,9.7l0,0.1l2.2,24c0,4.6-3.8,8.3-8.3,8.3c-3.9,0-7.4-2.8-8.2-6.7c-0.3-1.5-0.7-3.1-1.2-4.6
	l-1-3.1c-0.4-1.2-1.5-2-2.8-2H30.4c-1.2,0-2.4,0.8-2.8,2l-1,3.1c-0.5,1.5-0.9,3.1-1.2,4.6C24.6,55.8,21.2,58.6,17.3,58.6z"/>
<circle class="st0" cx="23.9" cy="27.8" r="6.8"/>
<circle class="st0" cx="48" cy="23.2" r="3.7"/>
<circle class="st0" cx="53.3" cy="32.2" r="3.7"/>
<circle class="st0" cx="42.8" cy="32.2" r="3.7"/>
</svg>
