<?xml version="1.0" encoding="utf-8"?>
<!-- Generator: Adobe Illustrator 24.3.0, SVG Export Plug-In . SVG Version: 6.00 Build 0)  -->
<svg version="1.1" id="Calque_1" xmlns="http://www.w3.org/2000/svg" xmlns:xlink="http://www.w3.org/1999/xlink" x="0px" y="0px"
	 viewBox="0 0 72 72" style="enable-background:new 0 0 72 72;" xml:space="preserve">
<style type="text/css">
	.st0{fill:none;stroke:#000000;stroke-linecap:round;stroke-miterlimit:10;}
</style>
<path class="st0" d="M10.2,52.9V36.3c0-13.7,11.1-24.8,24.8-24.8c13.7,0,24.8,11.1,24.8,24.8v16.6"/>
<path class="st0" d="M59.9,55.7c0,3-2.5,5.5-5.5,5.5h-2.8c-3,0-5.5-2.5-5.5-5.5v-8.3c0-3,2.5-5.5,5.5-5.5h8.3V55.7z M10.2,55.7
	c0,3,2.5,5.5,5.5,5.5h2.8c3,0,5.5-2.5,5.5-5.5v-8.3c0-3-2.5-5.5-5.5-5.5h-8.3V55.7z"/>
</svg>
