<?xml version="1.0" encoding="utf-8"?>
<!-- Generator: Adobe Illustrator 24.3.0, SVG Export Plug-In . SVG Version: 6.00 Build 0)  -->
<svg version="1.1" id="Calque_1" xmlns="http://www.w3.org/2000/svg" xmlns:xlink="http://www.w3.org/1999/xlink" x="0px" y="0px"
	 viewBox="0 0 72 72" style="enable-background:new 0 0 72 72;" xml:space="preserve">
<style type="text/css">
	.st0{fill:none;stroke:#000000;stroke-linecap:round;stroke-linejoin:round;stroke-miterlimit:10;}
</style>
<path class="st0" d="M53.7,45.6v5.6c0,2.1-1.7,3.8-3.7,3.8c-0.1,0-0.2,0-0.4,0c-5.8-0.6-11.3-2.6-16.2-5.8
	c-4.5-2.9-8.4-6.7-11.3-11.3c-3.2-4.9-5.1-10.5-5.8-16.3c-0.2-2.1,1.3-3.9,3.4-4.1c0.1,0,0.2,0,0.3,0h5.6c1.9,0,3.5,1.4,3.8,3.2
	c0.2,1.8,0.7,3.6,1.3,5.3c0.5,1.4,0.2,2.9-0.8,4l-2.4,2.4c2.7,4.7,6.6,8.6,11.3,11.3l2.4-2.4c1-1,2.6-1.4,4-0.8
	c1.7,0.6,3.5,1.1,5.3,1.3C52.4,42.1,53.8,43.7,53.7,45.6z"/>
</svg>
