<?xml version="1.0" encoding="utf-8"?>
<!-- Generator: Adobe Illustrator 24.3.0, SVG Export Plug-In . SVG Version: 6.00 Build 0)  -->
<svg version="1.1" id="Calque_1" xmlns="http://www.w3.org/2000/svg" xmlns:xlink="http://www.w3.org/1999/xlink" x="0px" y="0px"
	 viewBox="0 0 72 72" style="enable-background:new 0 0 72 72;" xml:space="preserve">
<style type="text/css">
	.st0{fill:none;stroke:#000000;stroke-linecap:round;stroke-miterlimit:10;}
</style>
<path class="st0" d="M38.5,17.3V13c0-1-0.8-1.8-1.8-1.8H14.8c-1,0-1.8,0.8-1.8,1.8v46.7c0,1,0.8,1.8,1.8,1.8h13.7"/>
<path class="st0" d="M42,61.5H29.4c-2,0-3.6-1.6-3.6-3.6v-37c0-2,1.6-3.6,3.6-3.6h15.1c2,0,3.6,1.6,3.6,3.6v3.6"/>
<path class="st0" d="M54.9,24.5H40.8c-1.3,0-2.3,1-2.3,2.3v32.3c0,1.3,1,2.3,2.3,2.3h14.1c1.3,0,2.3-1,2.3-2.3V26.9
	C57.2,25.6,56.1,24.5,54.9,24.5z"/>
<line class="st0" x1="46.7" y1="26.9" x2="48.9" y2="26.9"/>
<path class="st0" d="M31.9,17.3v1c0,0.6,0.5,1,1,1H41c0.6,0,1-0.5,1-1v-1"/>
<path class="st0" d="M38.5,16c0-0.7-0.6-1.2-1.2-1.2h-23c-0.7,0-1.2,0.6-1.2,1.2"/>
<path class="st0" d="M13,56.6c0,0.7,0.6,1.2,1.2,1.2h11.5"/>
<path class="st0" d="M25.7,57.2c0,0.6,0.5,1.1,0.9,1.1h11.9"/>
<line class="st0" x1="38.5" y1="29.8" x2="57.2" y2="29.8"/>
<line class="st0" x1="38.5" y1="57.2" x2="57.2" y2="57.2"/>
</svg>
