<?xml version="1.0" encoding="utf-8"?>
<!-- Generator: Adobe Illustrator 24.3.0, SVG Export Plug-In . SVG Version: 6.00 Build 0)  -->
<svg version="1.1" id="Calque_1" xmlns="http://www.w3.org/2000/svg" xmlns:xlink="http://www.w3.org/1999/xlink" x="0px" y="0px"
	 viewBox="0 0 72 72" style="enable-background:new 0 0 72 72;" xml:space="preserve">
<style type="text/css">
	.st0{fill:none;stroke:#000000;stroke-linecap:round;stroke-miterlimit:10;}
	.st1{fill:none;stroke:#000000;stroke-linecap:round;stroke-linejoin:round;stroke-miterlimit:10;}
	.st2{fill:#4D5766;stroke:#000000;stroke-miterlimit:10;}
</style>
<path class="st0" d="M47.2,11.1H35.1H23c-2,0-3.7,1.7-3.7,3.7v43c0,2,1.7,3.7,3.7,3.7h12.1h12.1c2,0,3.7-1.7,3.7-3.7v-43
	C50.9,12.8,49.2,11.1,47.2,11.1z"/>
<line class="st0" x1="24.6" y1="55.6" x2="30.3" y2="46.2"/>
<polyline class="st0" points="28,55.1 24.6,55.6 24.1,52.2 "/>
<line class="st0" x1="45.6" y1="16.2" x2="40" y2="25.5"/>
<polyline class="st0" points="42.2,16.7 45.6,16.2 46.2,19.5 "/>
<path class="st1" d="M26.9,38.9c0.4,0.4,1,0.7,1.6,0.7c1.3,0,2.3-1,2.3-2.3c0-1.3-1-2.3-2.3-2.3c-0.6,0-1.1,0.2-1.6,0.6l0.5-3.6h3.4
	"/>
<path class="st1" d="M37.3,31.9c1.2,0,2.1,0.5,2.1,1.9c0,1.3-2.1,1.9-2.1,1.9s-2.1-0.6-2.1-1.9C35.2,32.4,36.1,31.9,37.3,31.9z"/>
<path class="st1" d="M37.3,39.5c1.2,0,2.1-0.5,2.1-1.9c0-1.4-2.1-1.9-2.1-1.9s-2.1,0.6-2.1,1.9C35.2,38.9,36.1,39.5,37.3,39.5z"/>
<path class="st2" d="M33.5,39.2c0,0.4-0.3,0.6-0.6,0.6s-0.6-0.3-0.6-0.6c0-0.4,0.3-0.6,0.6-0.6S33.5,38.8,33.5,39.2"/>
<line class="st1" x1="41.9" y1="33.2" x2="42.7" y2="31.9"/>
<line class="st1" x1="44.1" y1="33.2" x2="44.8" y2="31.9"/>
</svg>
